# xmcd
#
# Track frame offsets: 
#        150
#        20196
#        38746
#        56682
#        82414
#        112145
#        135843
#        156894
#        173297
#        189510
#        210330
#        225433
#        247284
#        278713
#
# Disc length: 3983 seconds
#
# Revision: 0
# Processed by: cddbd v1.5.2PL0 Copyright (c) Steve Scherf et al.
# Submitted via: ExactAudioCopy v0.99pb5
#
DISCID=bd0f8d0e
DTITLE=Boogie Patrol - Grove On or Bug Out
DYEAR=2009
DGENRE=Modern Electric Blues
TTITLE0=Ain't Much for Talkin'
TTITLE1=Lazy Man
TTITLE2=Easy Chair
TTITLE3=Camielle
TTITLE4=Can't Help Myself
TTITLE5=Blues by my Bedside
TTITLE6=Rhumba in the Bronx
TTITLE7=Thrills I'm Chasing
TTITLE8=Celebrate
TTITLE9=Bread and Butter
TTITLE10=Grubline
TTITLE11=Why Not
TTITLE12=Thanking You
TTITLE13=Come Together
EXTD=
EXTT0=
EXTT1=
EXTT2=
EXTT3=
EXTT4=
EXTT5=
EXTT6=
EXTT7=
EXTT8=
EXTT9=
EXTT10=
EXTT11=
EXTT12=
EXTT13=
PLAYORDER=
